<?xml version="1.0" encoding="UTF-8"?> <svg xmlns="http://www.w3.org/2000/svg" width="119" height="47" viewBox="0 0 119 47" fill="none"><g clip-path="url(#clip0_11_5744)"><path d="M16.358 0.359131H30.2496C34.8561 0.359131 37.1604 0.359131 39.64 1.1433C42.3473 2.12899 44.4808 4.26246 45.4665 6.96983C46.2507 9.44938 46.2507 11.7537 46.2507 16.3602V30.2518C46.2507 34.8583 46.2507 37.1626 45.4665 39.6422C44.4808 42.3495 42.3473 44.483 39.64 45.4687C37.1604 46.2529 34.8561 46.2529 30.2496 46.2529H16.358C11.7515 46.2529 9.44719 46.2529 6.96763 45.4687C4.26027 44.483 2.12679 42.3495 1.1411 39.6422C0.356934 37.1626 0.356934 34.8583 0.356934 30.2518V16.358C0.356934 11.7515 0.356934 9.44719 1.1411 6.96764C2.12679 4.26027 4.26027 2.1268 6.96763 1.14111C9.44719 0.359131 11.7515 0.359131 16.358 0.359131Z" fill="#203668" stroke="white" stroke-width="0.717079" stroke-miterlimit="10"></path><path d="M80.4256 38.4484H79.3413L82.3378 32.1575H82.421L85.3124 38.4484H84.1865L83.6959 37.3641H80.9272L80.4256 38.4484ZM81.3193 36.4945H83.3147L82.3269 34.2208L81.3193 36.4945Z" fill="white"></path><path d="M87.413 38.6958H87.3297L84.5654 32.3545H85.7044L87.4064 36.3542L89.1127 32.3545H90.1882L87.413 38.6958Z" fill="white"></path><path d="M90.8389 38.4483V32.3567H91.9144V38.4483H90.8389Z" fill="white"></path><path d="M93.6209 38.4484H92.5366L95.5331 32.1575H95.6164L98.5077 38.4484H97.3818L96.8912 37.3641H94.1225L93.6209 38.4484ZM94.5168 36.4945H96.5122L95.5244 34.2208L94.5168 36.4945Z" fill="white"></path><path d="M100.891 33.2832V38.4461H99.8153V33.2832H97.7563V32.3545H102.937V33.2832H100.891Z" fill="white"></path><path d="M103.743 38.4483V32.3567H104.818V38.4483H103.743Z" fill="white"></path><path d="M105.94 35.4015C105.94 35.0225 105.993 34.6655 106.098 34.3304C106.203 33.9952 106.358 33.6842 106.566 33.3973C106.851 33.0052 107.206 32.7007 107.627 32.4838C108.047 32.267 108.496 32.1575 108.969 32.1575C109.372 32.1575 109.76 32.2385 110.132 32.3984C110.505 32.5583 110.831 32.7883 111.112 33.0862C111.401 33.3951 111.62 33.7455 111.771 34.1376C111.922 34.5297 111.999 34.9503 111.999 35.4015C111.999 35.8527 111.922 36.2733 111.771 36.6654C111.62 37.0574 111.401 37.4057 111.112 37.708C110.822 38.0081 110.494 38.2381 110.124 38.4024C109.753 38.5666 109.368 38.6455 108.967 38.6455C108.564 38.6455 108.179 38.5666 107.811 38.4067C107.443 38.2468 107.116 38.0169 106.831 37.7168C106.538 37.4079 106.315 37.0596 106.163 36.6675C106.017 36.2777 105.94 35.8549 105.94 35.4015ZM107.042 35.4015C107.042 36.0323 107.228 36.558 107.598 36.9786C107.968 37.3992 108.426 37.6116 108.969 37.6116C109.515 37.6116 109.975 37.4013 110.347 36.9786C110.719 36.5558 110.906 36.0301 110.906 35.4015C110.906 34.7685 110.722 34.2428 110.351 33.8222C109.981 33.4016 109.521 33.1914 108.969 33.1914C108.42 33.1914 107.962 33.4016 107.594 33.8222C107.226 34.2406 107.042 34.7685 107.042 35.4015Z" fill="white"></path><path d="M113.091 38.4484V32.1575H113.205L117.13 36.2295V32.3546H118.173V38.6455H118.059L114.127 34.5735V38.4484H113.091Z" fill="white"></path><path d="M7.30273 38.2864L13.0219 9.45825H13.3483L23.3235 29.8905L33.2614 9.45825H33.5703L39.2522 38.2864H34.4552L31.4127 22.5154L23.5162 39.2305H23.0935L14.8904 22.5154L11.8479 38.2864H7.30273Z" fill="white"></path><path d="M48.5352 29.45V14.2178H57.3998V16.5593H51.1396V20.3093H56.5171V22.6312H51.1396V27.0843H57.5049V29.4478H48.5352V29.45Z" fill="white"></path><path d="M60.5845 29.4501V13.7251H60.867L70.6779 23.904V14.2179H73.2824V29.943H72.9998L63.167 19.7641V29.4479H60.5845V29.4501Z" fill="white"></path><path d="M75.8145 29.45L84.3133 16.5199H76.8768L77.2448 14.22H88.6635L80.2282 27.0865H88.4948L88.0852 29.45H75.8145Z" fill="white"></path><path d="M91.3096 29.45V14.2178H93.9994V29.4478H91.3096V29.45Z" fill="white"></path><path d="M97.8525 29.45V14.2178H106.717V16.5593H100.457V20.3093H105.834V22.6312H100.457V27.0843H106.822V29.4478H97.8525V29.45Z" fill="white"></path><path d="M109.041 26.0659C109.867 26.5981 110.625 26.9902 111.31 27.2421C111.996 27.494 112.649 27.6211 113.264 27.6211C114.061 27.6211 114.71 27.4239 115.207 27.0275C115.704 26.631 115.952 26.1184 115.952 25.4876C115.952 24.9619 115.785 24.4909 115.452 24.0748C115.119 23.6586 114.541 23.2052 113.713 22.7145L112.568 22.0202C111.404 21.3345 110.581 20.6599 110.095 19.9984C109.608 19.3369 109.365 18.579 109.365 17.7247C109.365 16.5353 109.792 15.5672 110.647 14.8202C111.501 14.0755 112.614 13.7009 113.987 13.7009C114.653 13.7009 115.299 13.7754 115.926 13.9265C116.552 14.0777 117.185 14.3099 117.822 14.6253L117.739 17.0523C116.983 16.6383 116.315 16.336 115.739 16.1432C115.161 15.9505 114.644 15.8541 114.191 15.8541C113.49 15.8541 112.938 16.0096 112.537 16.3207C112.134 16.6317 111.932 17.0567 111.932 17.5977C111.932 18.0182 112.079 18.3994 112.373 18.7433C112.666 19.0872 113.214 19.4924 114.011 19.9612L115.115 20.6029C116.39 21.3586 117.297 22.11 117.836 22.8569C118.374 23.6016 118.644 24.4581 118.644 25.4241C118.644 26.7821 118.166 27.8795 117.209 28.7119C116.254 29.5443 114.981 29.9626 113.391 29.9626C112.664 29.9626 111.954 29.8881 111.264 29.737C110.574 29.5859 109.915 29.3603 109.284 29.0602L109.041 26.0659Z" fill="white"></path></g><defs><clipPath id="clip0_11_5744"><rect width="118.642" height="46.61" fill="white"></rect></clipPath></defs></svg> 