<?xml version="1.0" encoding="UTF-8"?> <svg xmlns="http://www.w3.org/2000/svg" viewBox="0 0 538.36 538.36"><defs><style>.cls-1{fill:#fff;}.cls-2{fill:#203668;}</style></defs><g id="Layer_2" data-name="Layer 2"><g id="Layer_1-2" data-name="Layer 1"><path class="cls-1" d="M346.12,15c51,0,76.55,0,104,8.69a107.94,107.94,0,0,1,64.53,64.53c8.69,27.47,8.69,53,8.69,104V346.12c0,51,0,76.55-8.69,104a107.94,107.94,0,0,1-64.53,64.53c-27.47,8.69-53,8.69-104,8.69H192.24c-51,0-76.56,0-104-8.69a108,108,0,0,1-64.54-64.53c-8.68-27.47-8.68-53-8.68-104V192.24c0-51,0-76.55,8.68-104A108,108,0,0,1,88.22,23.69c27.46-8.69,53-8.69,104-8.69H346.12m0-15H192.24C139.73,0,113.37,0,83.69,9.38l-.3.1-.3.11a122.65,122.65,0,0,0-73.5,73.5l-.11.3-.1.3C0,113.37,0,139.73,0,192.24V346.12C0,398.63,0,425,9.38,454.66l.1.31.11.3a122.68,122.68,0,0,0,73.5,73.5l.3.11.3.09c29.68,9.39,56,9.39,108.55,9.39H346.12c52.51,0,78.87,0,108.55-9.39l.3-.09.3-.11a122.68,122.68,0,0,0,73.5-73.5l.11-.3.1-.31c9.38-29.67,9.38-56,9.38-108.54V192.24c0-52.51,0-78.87-9.38-108.55l-.1-.3-.11-.3a122.68,122.68,0,0,0-73.5-73.5l-.3-.11-.31-.1C425,0,398.63,0,346.12,0Z"></path><path class="cls-2" d="M192.24,15H346.12c51,0,76.55,0,104,8.69a107.94,107.94,0,0,1,64.53,64.53c8.69,27.47,8.69,53,8.69,104V346.12c0,51,0,76.55-8.69,104a107.94,107.94,0,0,1-64.53,64.53c-27.47,8.69-53,8.69-104,8.69H192.24c-51,0-76.55,0-104-8.69a107.94,107.94,0,0,1-64.53-64.53c-8.69-27.47-8.69-53-8.69-104V192.24c0-51,0-76.55,8.69-104A107.94,107.94,0,0,1,88.22,23.69c27.47-8.69,53-8.69,104-8.69"></path><polygon class="cls-1" points="93.62 433.54 156.37 117.27 159.96 117.27 269.4 341.43 378.42 117.27 381.8 117.27 444.12 433.54 391.52 433.54 358.14 260.51 271.51 443.9 266.87 443.9 176.86 260.51 143.48 433.54 93.62 433.54"></polygon></g></g></svg> 