<svg width="155" height="24" viewBox="0 0 155 24" fill="none" xmlns="http://www.w3.org/2000/svg">
<g clip-path="url(#clip0_1979_614)">
<path fill-rule="evenodd" clip-rule="evenodd" d="M48.3403 19.0195C48.3403 20.0432 48.0822 20.9292 47.5659 21.6776C47.0496 22.426 46.3269 23.0023 45.3976 23.398C44.4683 23.7937 43.4099 23.9916 42.2053 23.9916C41.8697 23.9916 41.4567 23.9744 40.9748 23.9228C40.4844 23.8797 39.839 23.7593 39.0388 23.5615C38.23 23.3636 37.3953 23.0711 36.5177 22.6841V18.6668C37.3351 19.183 38.1439 19.6045 38.9356 19.94C39.7272 20.2754 40.5704 20.4475 41.4739 20.4475C42.3085 20.4475 42.8506 20.3099 43.0915 20.026C43.3411 19.7507 43.4615 19.4841 43.4615 19.2432C43.4615 18.8045 43.255 18.426 42.8334 18.1249C42.4118 17.8238 41.8009 17.5056 41.0006 17.1873C40.1144 16.8088 39.3314 16.3959 38.6602 15.9486C37.9891 15.5013 37.4384 14.9421 37.0167 14.2798C36.5951 13.6088 36.38 12.8174 36.38 11.9056C36.38 10.9937 36.5951 10.2281 37.0253 9.51416C37.4556 8.80018 38.1095 8.23244 38.9872 7.80233C39.8648 7.38083 40.9404 7.16577 42.2139 7.16577C43.1174 7.16577 43.952 7.25179 44.7178 7.43244C45.4836 7.61308 46.1203 7.81093 46.6194 8.02599C47.1185 8.24964 47.4627 8.42169 47.652 8.55072V12.3959C46.9894 11.9142 46.2494 11.4841 45.4406 11.1056C44.6232 10.7271 43.7541 10.5378 42.8248 10.5378C42.2139 10.5378 41.7751 10.6582 41.5083 10.8905C41.233 11.1228 41.0953 11.4152 41.0953 11.7679C41.0953 12.0948 41.233 12.3701 41.5083 12.6109C41.7837 12.8432 42.2655 13.1357 42.9711 13.4711C44.2187 14.0647 45.2169 14.598 45.9655 15.0711C46.7141 15.5443 47.2992 16.0862 47.7208 16.7056C48.1424 17.3249 48.3575 18.0905 48.3575 19.0195" fill="#E1081F"/>
<path fill-rule="evenodd" clip-rule="evenodd" d="M68.2254 15.7333C68.2254 17.2387 67.8812 18.6151 67.2015 19.8796C66.5131 21.1441 65.4978 22.142 64.1383 22.8903C62.7873 23.6301 61.1353 24.0086 59.1907 24.0086C57.246 24.0086 55.5595 23.6215 54.2 22.8473C52.8405 22.0731 51.8252 21.0581 51.1626 19.7936C50.5001 18.529 50.1731 17.1785 50.1731 15.742C50.1731 14.3054 50.5001 12.9463 51.1626 11.6817C51.8166 10.4258 52.8319 9.41077 54.2 8.63658C55.5681 7.86238 57.2288 7.48389 59.1993 7.48389C60.6706 7.48389 61.9785 7.70754 63.1315 8.14625C64.2845 8.58496 65.231 9.18711 65.971 9.9441C66.711 10.7011 67.2789 11.5785 67.6575 12.5764C68.0361 13.5828 68.234 14.6323 68.234 15.742M63.3466 15.742C63.3466 15.1398 63.2606 14.5893 63.0799 14.0903C62.8992 13.5914 62.6411 13.1613 62.2797 12.7914C61.9269 12.4215 61.4881 12.1377 60.9804 11.9312C60.4641 11.7247 59.8704 11.6215 59.1993 11.6215C57.9172 11.6215 56.9018 12 56.1705 12.757C55.4391 13.514 55.0691 14.5118 55.0691 15.742C55.0691 16.9721 55.4391 17.9699 56.1791 18.7355C56.9191 19.5011 57.9258 19.8796 59.2079 19.8796C60.0855 19.8796 60.8341 19.7075 61.4536 19.3549C62.0732 19.0022 62.5464 18.5118 62.8648 17.8925C63.1832 17.2731 63.3466 16.5592 63.3466 15.7506" fill="#E1081F"/>
<path fill-rule="evenodd" clip-rule="evenodd" d="M86.6993 16.0345C86.6993 17.6861 86.4067 19.0108 85.813 20.0087C85.2193 21.0065 84.5223 21.8151 83.7221 22.4345C82.5777 23.3377 80.9859 23.7936 78.938 23.7936H70.3506V7.69897H76.9589C77.9571 7.69897 78.8089 7.75059 79.5145 7.85381C80.2201 7.95704 80.8568 8.10328 81.4247 8.29252C81.9926 8.48177 82.4744 8.69682 82.8703 8.92908C83.2661 9.16134 83.6275 9.41941 83.9372 9.68607C84.4793 10.1334 84.9612 10.6667 85.3656 11.2775C85.7786 11.8882 86.097 12.5936 86.3379 13.4022C86.5788 14.2108 86.6993 15.0796 86.6993 16.0259M81.8205 15.8194C81.8205 14.5119 81.571 13.4882 81.0805 12.757C80.5901 12.0259 79.9963 11.5355 79.2994 11.2861C78.6024 11.0366 77.8968 10.9162 77.1826 10.9162H75.1434V20.4474H77.1826C78.4389 20.4474 79.5231 20.1463 80.4438 19.5441C81.3645 18.942 81.8205 17.6947 81.8205 15.8194Z" fill="#E1081F"/>
<path fill-rule="evenodd" clip-rule="evenodd" d="M88.6611 23.785H93.4625V7.69897H88.6611V23.785Z" fill="#E1081F"/>
<path fill-rule="evenodd" clip-rule="evenodd" d="M114.251 23.785H109.45V14.4603L105.122 19.8624H104.743L100.406 14.4603V23.785H95.7513V7.69897H100.097L104.984 13.7291L109.897 7.69897H114.251V23.785Z" fill="#E1081F"/>
<path fill-rule="evenodd" clip-rule="evenodd" d="M134.635 23.7851H129.722L128.423 20.5248H121.513L120.197 23.7851H115.284L122.322 7.69043H127.622L134.635 23.7851ZM127.321 17.7205L124.989 11.8453L122.64 17.7205H127.321Z" fill="#E1081F"/>
<path fill-rule="evenodd" clip-rule="evenodd" d="M149.289 22.5807C148.635 22.9248 147.955 23.2087 147.267 23.4151C146.578 23.6216 145.881 23.7764 145.184 23.8624C144.487 23.9485 143.756 24.0001 143.007 24.0001C141.622 24.0001 140.383 23.8108 139.282 23.4237C138.18 23.0366 137.234 22.4689 136.425 21.7119C135.616 20.9549 135.014 20.0775 134.609 19.0624C134.205 18.056 134.007 16.9463 134.007 15.7334C134.007 14.3485 134.248 13.1356 134.721 12.0947C135.195 11.0538 135.857 10.185 136.709 9.49685C137.561 8.80868 138.533 8.30115 139.626 7.96566C140.719 7.63878 141.863 7.47534 143.076 7.47534C144.883 7.47534 146.931 7.87964 149.22 8.69685V12.9721C148.428 12.4732 147.654 12.0689 146.888 11.7334C146.122 11.4065 145.21 11.2431 144.169 11.2431C143.24 11.2431 142.379 11.4323 141.579 11.8022C140.779 12.1721 140.125 12.7054 139.643 13.3936C139.153 14.0818 138.912 14.8904 138.912 15.8108C138.912 16.6194 139.127 17.3678 139.557 18.0474C139.987 18.727 140.581 19.2603 141.338 19.6646C142.104 20.0603 142.956 20.2667 143.92 20.2667C144.694 20.2667 145.425 20.1721 146.114 19.9829C146.802 19.7936 147.379 19.5786 147.852 19.3463C148.325 19.1141 148.807 18.8388 149.306 18.5205V22.5979L149.289 22.5807Z" fill="#E1081F"/>
<path fill-rule="evenodd" clip-rule="evenodd" d="M152.249 20.6453H152.877C153.161 20.6453 153.367 20.6883 153.505 20.7915C153.651 20.8861 153.729 21.0238 153.729 21.213C153.729 21.3592 153.686 21.4797 153.6 21.5829C153.522 21.6775 153.41 21.7377 153.264 21.7635L153.711 22.7012H153.359L152.954 21.798H152.567V22.7012H152.249V20.6539V20.6453ZM152.567 20.8947V21.5743H152.885C153.075 21.5743 153.204 21.5485 153.281 21.4969C153.359 21.4453 153.402 21.3592 153.402 21.2474C153.402 21.1184 153.359 21.0324 153.281 20.9721C153.195 20.9205 153.057 20.8947 152.877 20.8947H152.567Z" fill="#E1081F"/>
<path fill-rule="evenodd" clip-rule="evenodd" d="M152.894 23.6645C152.645 23.6645 152.404 23.6129 152.154 23.5097C151.922 23.4065 151.707 23.2602 151.526 23.0796C151.345 22.8903 151.208 22.6839 151.113 22.443C151.01 22.2022 150.967 21.9527 150.967 21.6946C150.967 21.471 151.001 21.2645 151.07 21.0581C151.139 20.8516 151.242 20.6624 151.38 20.4903C151.569 20.2495 151.793 20.0602 152.051 19.9398C152.524 19.6989 153.135 19.6817 153.651 19.8968C153.884 20 154.099 20.1376 154.279 20.3355C154.469 20.5161 154.606 20.7312 154.701 20.9635C154.796 21.2043 154.847 21.4538 154.847 21.7032C154.847 21.9527 154.796 22.228 154.701 22.4602C154.598 22.7011 154.452 22.9161 154.271 23.0882C154.09 23.2688 153.875 23.4151 153.634 23.5097C153.393 23.6129 153.152 23.6645 152.903 23.6645M152.903 20.0516C152.653 20.0516 152.404 20.1118 152.189 20.2151C151.965 20.3183 151.776 20.4817 151.621 20.6796C151.509 20.8258 151.423 20.9893 151.362 21.1613C151.302 21.3333 151.276 21.5054 151.276 21.6946C151.276 21.9097 151.319 22.1247 151.397 22.3312C151.483 22.529 151.603 22.7011 151.75 22.8559C151.905 23.0108 152.085 23.1398 152.283 23.2258C152.679 23.3893 153.109 23.3979 153.522 23.2258C153.729 23.1398 153.909 23.0194 154.064 22.8645C154.228 22.7097 154.34 22.5376 154.426 22.3398C154.503 22.142 154.546 21.9183 154.546 21.6946C154.546 21.4796 154.503 21.2645 154.426 21.0667C154.348 20.8688 154.228 20.6882 154.082 20.5333C153.927 20.3699 153.746 20.2495 153.548 20.1721C153.35 20.086 153.135 20.043 152.911 20.043" fill="#E1081F"/>
<path fill-rule="evenodd" clip-rule="evenodd" d="M24.2476 2.27957H18.2588V0H15.9786H13.6984V2.27957H7.73548L0 11.1226V23.957H31.9487V11.1226L24.2476 2.27957Z" fill="#1D1D1B"/>
<path fill-rule="evenodd" clip-rule="evenodd" d="M2.28027 21.6773H14.8343V13.4106H2.28027V21.6773Z" fill="#E1081F"/>
<path fill-rule="evenodd" clip-rule="evenodd" d="M17.1145 21.6773H29.6685V13.4106H17.1145V21.6773Z" fill="#FEFEFE"/>
<path fill-rule="evenodd" clip-rule="evenodd" d="M29.1092 11.114L23.3786 4.54199H11.3925L17.1489 11.114H29.1092Z" fill="#006AB3"/>
<path fill-rule="evenodd" clip-rule="evenodd" d="M14.275 11.1225L8.65622 4.52466L2.88257 11.1225H14.275Z" fill="#FFEC00"/>
</g>
<defs>
<clipPath id="clip0_1979_614">
<rect width="154.839" height="24" fill="white"/>
</clipPath>
</defs>
</svg>
